<?xml version="1.0" encoding="UTF-8"?>
<svg enable-background="new 0 0 612 792" version="1.1" viewBox="0 0 40 40" xml:space="preserve" xmlns="http://www.w3.org/2000/svg">
     <title>logo</title>
	 	<path d="m30.5 5.4v16.7c-0.3 5.1-4.6 9.1-9.7 9.1-5.4 0-9.8-4.4-9.8-9.8s4.4-9.8 9.8-9.8c1.4 0 2.7 0.3 3.9 0.8l-2 4.8c-0.6-0.3-1.3-0.5-2-0.5-2.5 0-4.6 2-4.6 4.6s2 4.6 4.6 4.6 4.6-2 4.6-4.6v-0.7-17.5c-1.5-0.4-3-0.6-4.6-0.6-10.1 0-18.3 8.2-18.3 18.3s8.3 18.2 18.4 18.2 18.2-8.2 18.2-18.2c0-6.5-3.4-12.2-8.5-15.4z"/>
</svg>
